<svg id="Layer_1" data-name="Layer 1" xmlns="http://www.w3.org/2000/svg" xmlns:xlink="http://www.w3.org/1999/xlink" viewBox="0 0 31.98 27.95"><defs><style>.cls-1,.cls-2{fill:none;}.cls-1{clip-rule:evenodd;}.cls-3{clip-path:url(#clip-path);}.cls-4{isolation:isolate;}.cls-5{clip-path:url(#clip-path-2);}.cls-6{clip-path:url(#clip-path-3);}.cls-7{fill:#19c2f1;}.cls-8{clip-path:url(#clip-path-5);}.cls-9{fill:#fff;}.cls-10{clip-path:url(#clip-path-6);}</style><clipPath id="clip-path" transform="translate(-290 -452.05)"><polyline class="cls-1" points="295 457.05 316.98 457.05 316.98 475 295 475"/></clipPath><clipPath id="clip-path-2" transform="translate(-290 -452.05)"><rect class="cls-2" x="295" y="457" width="22" height="18"/></clipPath><clipPath id="clip-path-3" transform="translate(-290 -452.05)"><path class="cls-1" d="M306,457c-6.07,0-11,3.64-11,8.12a7,7,0,0,0,2.74,5.36l-1.3,4.48,4-2.82a14,14,0,0,0,5.52,1.11c6.07,0,11-3.64,11-8.12S312.06,457,306,457"/></clipPath><clipPath id="clip-path-5" transform="translate(-290 -452.05)"><path class="cls-1" d="M310.89,467.59a0.32,0.32,0,0,1,0,.46,0.33,0.33,0,0,1-.46,0l-3.21-2.89-1.08.71a0.33,0.33,0,0,1-.37,0l-0.81-.57-3,2.75a0.33,0.33,0,0,1-.46,0,0.32,0.32,0,0,1,0-.46l2.94-2.65-4.1-2.86a1.52,1.52,0,0,0-.14.63v4.93a1.57,1.57,0,0,0,1.58,1.56h9.08a1.57,1.57,0,0,0,1.58-1.56v-4.93a1.52,1.52,0,0,0-.24-0.81l-4.39,2.91Z"/></clipPath><clipPath id="clip-path-6" transform="translate(-290 -452.05)"><path class="cls-1" d="M305.14,464.65l0.84,0.59,5.74-3.81a1.58,1.58,0,0,0-.88-0.27h-9.08a1.58,1.58,0,0,0-1.06.41l4.43,3.09h0"/></clipPath></defs><title>email</title><g class="cls-3"><g class="cls-4"><g class="cls-5"><g class="cls-6"><g class="cls-5"><rect class="cls-7" width="31.98" height="27.95"/></g></g></g></g></g><g class="cls-8"><rect class="cls-9" x="5.19" y="4.85" width="22.23" height="17.29"/></g><g class="cls-10"><rect class="cls-9" x="5.72" y="4.11" width="21.02" height="14.08"/></g></svg>