<svg id="Layer_1" data-name="Layer 1" xmlns="http://www.w3.org/2000/svg" xmlns:xlink="http://www.w3.org/1999/xlink" viewBox="0 0 31.98 27.95"><defs><style>.cls-1,.cls-2{fill:none;}.cls-1{clip-rule:evenodd;}.cls-3{clip-path:url(#clip-path);}.cls-4{isolation:isolate;}.cls-5{clip-path:url(#clip-path-2);}.cls-6{clip-path:url(#clip-path-3);}.cls-7{fill:#19c2f1;}.cls-8{clip-path:url(#clip-path-5);}.cls-9{fill:#fff;}</style><clipPath id="clip-path" transform="translate(-290 -382.05)"><polyline class="cls-1" points="295 387.05 316.98 387.05 316.98 405 295 405"/></clipPath><clipPath id="clip-path-2" transform="translate(-290 -382.05)"><rect class="cls-2" x="295" y="387" width="22" height="18"/></clipPath><clipPath id="clip-path-3" transform="translate(-290 -382.05)"><path class="cls-1" d="M306,387c-6.07,0-11,3.64-11,8.12a7,7,0,0,0,2.74,5.36l-1.3,4.48,4-2.82a14,14,0,0,0,5.52,1.11c6.07,0,11-3.64,11-8.12S312.06,387,306,387"/></clipPath><clipPath id="clip-path-5" transform="translate(-290 -382.05)"><path class="cls-1" d="M306.42,392c-4.33-.8-7.67-0.41-8.63.24s-0.58,3,.4,3.75,4.11,0.49,4.93.09,0-1.84,1-2.21,4.36,0.63,5,1.29-0.34,1.32.24,2.16,2.9,1.46,3.65,1.41,1.81-2.15,2.09-3.11c0.6-2.09-4.31-2.82-8.64-3.63"/></clipPath></defs><title>phone</title><g class="cls-3"><g class="cls-4"><g class="cls-5"><g class="cls-6"><g class="cls-5"><rect class="cls-7" width="31.98" height="27.95"/></g></g></g></g></g><g class="cls-8"><rect class="cls-9" x="2.23" y="4.53" width="27.88" height="17.19"/></g></svg>